<?xml version="1.0" encoding="UTF-8" standalone="no"?>
<!-- Created with Inkscape (http://www.inkscape.org/) -->

<svg
   xmlns:dc="http://purl.org/dc/elements/1.1/"
   xmlns:cc="http://creativecommons.org/ns#"
   xmlns:rdf="http://www.w3.org/1999/02/22-rdf-syntax-ns#"
   xmlns:svg="http://www.w3.org/2000/svg"
   xmlns="http://www.w3.org/2000/svg"
   xmlns:sodipodi="http://sodipodi.sourceforge.net/DTD/sodipodi-0.dtd"
   xmlns:inkscape="http://www.inkscape.org/namespaces/inkscape"
   width="86mm"
   height="70mm"
   viewBox="0 0 304.72446 248.03149"
   id="svg2"
   version="1.1"
   inkscape:version="0.91 r13725"
   sodipodi:docname="background-def.svg">
  <defs
     id="defs4">
    <inkscape:perspective
       sodipodi:type="inkscape:persp3d"
       inkscape:vp_x="4.0406113 : 121.99543 : 1"
       inkscape:vp_y="0 : 1000 : 0"
       inkscape:vp_z="252.07217 : 121.99543 : 1"
       inkscape:persp3d-origin="128.0564 : 80.656859 : 1"
       id="perspective3544" />
    <inkscape:perspective
       sodipodi:type="inkscape:persp3d"
       inkscape:vp_x="0 : 124.01574 : 1"
       inkscape:vp_y="0 : 1000 : 0"
       inkscape:vp_z="248.03157 : 124.01574 : 1"
       inkscape:persp3d-origin="124.01579 : 82.677163 : 1"
       id="perspective3458" />
  </defs>
  <sodipodi:namedview
     id="base"
     pagecolor="#ffffff"
     bordercolor="#666666"
     borderopacity="1.0"
     inkscape:pageopacity="0.0"
     inkscape:pageshadow="2"
     inkscape:zoom="1.979899"
     inkscape:cx="229.40575"
     inkscape:cy="124.02588"
     inkscape:document-units="px"
     inkscape:current-layer="layer1"
     showgrid="false"
     inkscape:window-width="1535"
     inkscape:window-height="876"
     inkscape:window-x="1665"
     inkscape:window-y="24"
     inkscape:window-maximized="1" />
  <metadata
     id="metadata7">
    <rdf:RDF>
      <cc:Work
         rdf:about="">
        <dc:format>image/svg+xml</dc:format>
        <dc:type
           rdf:resource="http://purl.org/dc/dcmitype/StillImage" />
        <dc:title />
      </cc:Work>
    </rdf:RDF>
  </metadata>
  <g
     inkscape:label="Capa 1"
     inkscape:groupmode="layer"
     id="layer1"
     transform="translate(0,-804.33071)">
    <rect
       style="opacity:1;fill:#00ccff;fill-opacity:1;stroke:none;stroke-width:17.29999924;stroke-linecap:round;stroke-miterlimit:4;stroke-dasharray:none;stroke-opacity:1"
       id="rect3418"
       width="333.85541"
       height="266.68027"
       x="-13.131983"
       y="795.78345"
       ry="0.36539999" />
    <path
       style="fill:#552200;fill-rule:evenodd;stroke:#000000;stroke-width:0.09126659px;stroke-linecap:butt;stroke-linejoin:miter;stroke-opacity:1"
       d="m 195.24153,885.42522 24.77236,18.25331 5.99753,22.16475 -6.25828,13.82036 -4.17218,19.29633 15.90646,0.78225 0.78229,-17.21019 6.25827,-14.86341 -5.99751,-25.03315 42.24339,-29.98758 16.42798,4.95448 12.51658,0 -12.2558,-3.91144 -20.33943,-7.04055 -10.43048,-15.12419 4.1722,13.82037 -26.33693,5.21523 -15.12416,-6.7798 12.7773,13.29883 28.42304,-5.99751 -38.59274,22.94704 -25.29389,-15.38494 11.99505,-1.82533 -16.9495,-4.43295 -3.65068,-8.60514 -3.91142,11.21275 -16.42799,5.21524 z"
       id="path3342"
       inkscape:connector-curvature="0" />
    <ellipse
       style="opacity:1;fill:#ffff00;fill-opacity:1;stroke:none;stroke-width:17.29999924;stroke-linecap:round;stroke-miterlimit:4;stroke-dasharray:none;stroke-opacity:1"
       id="path3344"
       cx="193.15543"
       cy="865.86804"
       rx="35.985111"
       ry="19.296366" />
    <ellipse
       style="opacity:1;fill:#ffff00;fill-opacity:1;stroke:none;stroke-width:17.29999924;stroke-linecap:round;stroke-miterlimit:4;stroke-dasharray:none;stroke-opacity:1"
       id="path3346"
       cx="221.1873"
       cy="851.26538"
       rx="24.641981"
       ry="19.035604" />
    <ellipse
       style="opacity:1;fill:#ffff00;fill-opacity:1;stroke:none;stroke-width:17.29999924;stroke-linecap:round;stroke-miterlimit:4;stroke-dasharray:none;stroke-opacity:1"
       id="path3350"
       cx="269.94974"
       cy="856.48071"
       rx="34.029404"
       ry="20.339411" />
    <ellipse
       style="opacity:1;fill:#ffff00;fill-opacity:1;stroke:none;stroke-width:17.29999924;stroke-linecap:round;stroke-miterlimit:4;stroke-dasharray:none;stroke-opacity:1"
       id="path3354"
       cx="290.02838"
       cy="873.039"
       rx="22.816647"
       ry="17.862175" />
    <ellipse
       style="opacity:1;fill:#ffff00;fill-opacity:1;stroke:none;stroke-width:17.29999924;stroke-linecap:round;stroke-miterlimit:4;stroke-dasharray:none;stroke-opacity:1"
       id="path3356"
       cx="247.91537"
       cy="835.09827"
       rx="24.772358"
       ry="18.774843" />
    <ellipse
       style="opacity:1;fill:#ffff00;fill-opacity:1;stroke:none;stroke-width:17.29999924;stroke-linecap:round;stroke-miterlimit:4;stroke-dasharray:none;stroke-opacity:1"
       id="path3358"
       cx="193.93773"
       cy="847.48444"
       rx="24.250837"
       ry="15.776083" />
    <ellipse
       style="opacity:1;fill:#ffff00;fill-opacity:1;stroke:none;stroke-width:17.29999924;stroke-linecap:round;stroke-miterlimit:4;stroke-dasharray:none;stroke-opacity:1"
       id="path3362"
       cx="212.06064"
       cy="883.07849"
       rx="8.7355175"
       ry="7.8228507" />
    <path
       style="fill:#44aa00;fill-rule:evenodd;stroke:#000000;stroke-width:1.31128156px;stroke-linecap:butt;stroke-linejoin:miter;stroke-opacity:1"
       d="m -3.8054772,1056.175 83.3532732,-53.0253 38.958504,15.6634 38.45962,-32.02817 57.71353,-31.67332 34.45652,6.44472 56.79919,93.70097 z"
       id="path3546"
       inkscape:connector-curvature="0" />
    <ellipse
       style="opacity:1;fill:#000000;fill-opacity:1;stroke:none;stroke-width:17.29999924;stroke-linecap:round;stroke-miterlimit:4;stroke-dasharray:none;stroke-opacity:1"
       id="path4212"
       cx="222.18916"
       cy="978.82037"
       rx="12.601664"
       ry="12.209016" />
    <path
       style="fill:#552200;fill-rule:evenodd;stroke:#000000;stroke-width:0.05444939px;stroke-linecap:butt;stroke-linejoin:miter;stroke-opacity:1"
       d="m 220.29552,982.30214 c -1.37506,-5.03273 3.54764,-9.70797 3.54764,-9.70797 l 1.21004,0.90755 c 0,0 -3.54763,2.97014 -3.13512,8.93786 0.41252,5.96771 -1.62256,-0.13744 -1.62256,-0.13744 z"
       id="path4193"
       inkscape:connector-curvature="0" />
    <ellipse
       style="opacity:1;fill:#803300;fill-opacity:1;stroke:none;stroke-width:17.29999924;stroke-linecap:round;stroke-miterlimit:4;stroke-dasharray:none;stroke-opacity:1"
       id="path3383"
       cx="221.24876"
       cy="983.38489"
       rx="4.4052763"
       ry="4.2815328" />
    <path
       sodipodi:type="spiral"
       style="fill:none;fill-rule:evenodd;stroke:#000000;stroke-width:0.04900001px;stroke-linecap:butt;stroke-linejoin:miter;stroke-opacity:1"
       id="path4191"
       sodipodi:cx="221.224"
       sodipodi:cy="983.28589"
       sodipodi:expansion="1"
       sodipodi:revolution="3.3099999"
       sodipodi:radius="4.4768548"
       sodipodi:argument="-20.465103"
       sodipodi:t0="0"
       d="m 221.224,983.28589 c -0.009,-0.20324 0.26947,-0.11254 0.33779,-0.0151 0.18515,0.26398 -0.0496,0.59569 -0.30754,0.69071 -0.46147,0.16998 -0.92891,-0.18805 -1.04363,-0.6302 -0.16835,-0.64888 0.32697,-1.26799 0.95287,-1.39655 0.83423,-0.17135 1.60932,0.46585 1.74947,1.27554 0.17637,1.0189 -0.60466,1.95176 -1.5982,2.10238 -1.20331,0.18243 -2.29485,-0.74343 -2.45531,-1.92086 -0.1891,-1.38757 0.88217,-2.63833 2.24354,-2.80823 1.57174,-0.19616 2.98207,1.02089 3.16114,2.5662 0.20348,1.75588 -1.15959,3.326 -2.88886,3.51406 -1.93999,0.21098 -3.67007,-1.29828 -3.86699,-3.21153 -0.21861,-2.12406 1.43698,-4.01424 3.5342,-4.2199 2.30813,-0.22635 4.35848,1.57565 4.57282,3.85686 0.0522,0.55601 -0.003,1.12084 -0.15927,1.65683" />
    <ellipse
       style="opacity:1;fill:#005500;fill-opacity:1;stroke:none;stroke-width:17.29999924;stroke-linecap:round;stroke-miterlimit:4;stroke-dasharray:none;stroke-opacity:1"
       id="path4195"
       cx="-377.46359"
       cy="922.45941"
       rx="1.5195994"
       ry="3.2472394"
       transform="matrix(0.81731528,-0.57619071,0.57619071,0.81731528,0,0)" />
    <ellipse
       style="opacity:1;fill:#008000;fill-opacity:1;stroke:none;stroke-width:17.29999924;stroke-linecap:round;stroke-miterlimit:4;stroke-dasharray:none;stroke-opacity:1"
       id="path4195-3"
       cx="-992.72205"
       cy="112.43397"
       rx="1.5195994"
       ry="3.2472394"
       transform="matrix(-0.11560418,-0.99329536,0.99329536,-0.11560418,0,0)" />
  </g>
</svg>
