<?xml version="1.0" encoding="UTF-8" standalone="no"?>
<!-- Created with Inkscape (http://www.inkscape.org/) -->

<svg
   xmlns:dc="http://purl.org/dc/elements/1.1/"
   xmlns:cc="http://creativecommons.org/ns#"
   xmlns:rdf="http://www.w3.org/1999/02/22-rdf-syntax-ns#"
   xmlns:svg="http://www.w3.org/2000/svg"
   xmlns="http://www.w3.org/2000/svg"
   xmlns:sodipodi="http://sodipodi.sourceforge.net/DTD/sodipodi-0.dtd"
   xmlns:inkscape="http://www.inkscape.org/namespaces/inkscape"
   width="1024mm"
   height="1024mm"
   viewBox="0 0 3628.3463 3628.3464"
   id="svg2"
   version="1.1"
   inkscape:version="0.91 r13725"
   sodipodi:docname="cnatural-server.svg">
  <defs
     id="defs4" />
  <sodipodi:namedview
     id="base"
     pagecolor="#ffffff"
     bordercolor="#666666"
     borderopacity="1.0"
     inkscape:pageopacity="0.0"
     inkscape:pageshadow="2"
     inkscape:zoom="0.24748737"
     inkscape:cx="1908.7491"
     inkscape:cy="1765.2862"
     inkscape:document-units="px"
     inkscape:current-layer="layer1"
     showgrid="false"
     inkscape:window-width="1600"
     inkscape:window-height="849"
     inkscape:window-x="0"
     inkscape:window-y="27"
     inkscape:window-maximized="1" />
  <metadata
     id="metadata7">
    <rdf:RDF>
      <cc:Work
         rdf:about="">
        <dc:format>image/svg+xml</dc:format>
        <dc:type
           rdf:resource="http://purl.org/dc/dcmitype/StillImage" />
        <dc:title></dc:title>
      </cc:Work>
    </rdf:RDF>
  </metadata>
  <g
     inkscape:label="Capa 1"
     inkscape:groupmode="layer"
     id="layer1"
     transform="translate(0,2575.9843)">
    <g
       id="g3432"
       transform="matrix(2.8324757,0,0,2.8324757,341.7828,-2276.1226)">
      <g
         inkscape:label="Capa 1"
         id="layer1-9"
         transform="matrix(5.2423351,0,0,5.2423351,-133.27221,-4333.4142)">
        <ellipse
           style="opacity:1;fill:#000000;fill-opacity:1;stroke:none;stroke-width:17.29999924;stroke-linecap:round;stroke-miterlimit:4;stroke-dasharray:none;stroke-opacity:1"
           id="path4212"
           cx="23.042122"
           cy="1031.0957"
           rx="15.99024"
           ry="15.49201" />
        <path
           style="fill:#552200;fill-rule:evenodd;stroke:#000000;stroke-width:0.06909079px;stroke-linecap:butt;stroke-linejoin:miter;stroke-opacity:1"
           d="m 20.639279,1035.5137 c -1.74481,-6.386 4.5016,-12.3184 4.5016,-12.3184 l 1.53542,1.1516 c 0,0 -4.50159,3.7688 -3.97815,11.3412 0.52344,7.5725 -2.05887,-0.1744 -2.05887,-0.1744 z"
           id="path4193"
           inkscape:connector-curvature="0" />
        <ellipse
           style="opacity:1;fill:#803300;fill-opacity:1;stroke:none;stroke-width:17.29999924;stroke-linecap:round;stroke-miterlimit:4;stroke-dasharray:none;stroke-opacity:1"
           id="path3383"
           cx="21.848854"
           cy="1036.8877"
           rx="5.5898514"
           ry="5.4328332" />
        <path
           sodipodi:type="spiral"
           style="fill:none;fill-rule:evenodd;stroke:#000000;stroke-width:0.06217607px;stroke-linecap:butt;stroke-linejoin:miter;stroke-opacity:1"
           id="path4191"
           sodipodi:cx="21.817436"
           sodipodi:cy="1036.762"
           sodipodi:expansion="1"
           sodipodi:revolution="3.3099999"
           sodipodi:radius="5.6806779"
           sodipodi:argument="-20.465103"
           sodipodi:t0="0"
           d="m 21.817436,1036.762 c -0.01155,-0.2579 0.341929,-0.1428 0.428625,-0.019 0.234941,0.3349 -0.06288,0.7558 -0.390236,0.8764 -0.585561,0.2157 -1.178697,-0.2386 -1.324263,-0.7997 -0.213623,-0.8233 0.414895,-1.6089 1.209098,-1.772 1.058547,-0.2175 2.042064,0.5911 2.2199,1.6185 0.223788,1.2929 -0.767261,2.4766 -2.027959,2.6677 -1.526873,0.2315 -2.911927,-0.9433 -3.115538,-2.4374 -0.239948,-1.7607 1.119388,-3.3477 2.84682,-3.5633 1.994389,-0.2489 3.783946,1.2954 4.011175,3.2562 0.258193,2.2281 -1.471407,4.2204 -3.66568,4.459 -2.461644,0.2677 -4.656948,-1.6474 -4.906813,-4.0751 -0.277398,-2.6952 1.823375,-5.0937 4.484541,-5.3546 2.928787,-0.2872 5.530479,1.9993 5.802451,4.8939 0.06629,0.7056 -0.0034,1.4223 -0.202096,2.1024" />
        <ellipse
           style="opacity:1;fill:#005500;fill-opacity:1;stroke:none;stroke-width:17.29999924;stroke-linecap:round;stroke-miterlimit:4;stroke-dasharray:none;stroke-opacity:1"
           id="path4195"
           cx="-569.02576"
           cy="848.9408"
           rx="1.9282186"
           ry="4.1204195"
           transform="matrix(0.81731528,-0.57619071,0.57619071,0.81731528,0,0)" />
        <ellipse
           style="opacity:1;fill:#008000;fill-opacity:1;stroke:none;stroke-width:17.29999924;stroke-linecap:round;stroke-miterlimit:4;stroke-dasharray:none;stroke-opacity:1"
           id="path4195-3"
           cx="-1020.2206"
           cy="-90.106155"
           rx="1.9282186"
           ry="4.1204195"
           transform="matrix(-0.11560418,-0.99329536,0.99329536,-0.11560418,0,0)" />
        <path
           style="fill:#552200;fill-rule:evenodd;stroke:#000000;stroke-width:0.14103636px;stroke-linecap:butt;stroke-linejoin:miter;stroke-opacity:1"
           d="m 62.97702,916.43333 38.28129,28.20727 9.26811,34.25169 -9.67107,21.35691 -6.447372,29.8191 24.580622,1.2088 1.20889,-26.5953 9.67106,-22.96879 -9.26811,-38.68426 65.27968,-46.34051 25.38654,7.65626 19.34215,0 -18.93917,-6.04441 -31.43097,-10.87995 -16.11845,-23.37174 6.44739,21.35693 -40.69906,8.05923 -23.37174,-10.47699 19.74508,20.55101 43.92277,-9.2681 -59.63824,35.46056 -39.087219,-23.7747 18.536205,-2.82072 -26.192463,-6.85034 -5.641455,-13.29771 -6.044416,17.32732 -25.386544,8.05923 z"
           id="path3342"
           inkscape:connector-curvature="0" />
        <ellipse
           style="opacity:1;fill:#ffff00;fill-opacity:1;stroke:none;stroke-width:17.29999924;stroke-linecap:round;stroke-miterlimit:4;stroke-dasharray:none;stroke-opacity:1"
           id="path3344"
           cx="59.753338"
           cy="886.21118"
           rx="55.60862"
           ry="29.819115" />
        <ellipse
           style="opacity:1;fill:#ffff00;fill-opacity:1;stroke:none;stroke-width:17.29999924;stroke-linecap:round;stroke-miterlimit:4;stroke-dasharray:none;stroke-opacity:1"
           id="path3346"
           cx="103.07165"
           cy="863.64539"
           rx="38.079815"
           ry="29.416155" />
        <ellipse
           style="opacity:1;fill:#ffff00;fill-opacity:1;stroke:none;stroke-width:17.29999924;stroke-linecap:round;stroke-miterlimit:4;stroke-dasharray:none;stroke-opacity:1"
           id="path3350"
           cx="178.42532"
           cy="871.70465"
           rx="52.586414"
           ry="31.43096" />
        <ellipse
           style="opacity:1;fill:#ffff00;fill-opacity:1;stroke:none;stroke-width:17.29999924;stroke-linecap:round;stroke-miterlimit:4;stroke-dasharray:none;stroke-opacity:1"
           id="path3354"
           cx="209.45334"
           cy="897.29266"
           rx="35.259087"
           ry="27.602827" />
        <ellipse
           style="opacity:1;fill:#ffff00;fill-opacity:1;stroke:none;stroke-width:17.29999924;stroke-linecap:round;stroke-miterlimit:4;stroke-dasharray:none;stroke-opacity:1"
           id="path3356"
           cx="144.37514"
           cy="838.66187"
           rx="38.281292"
           ry="29.013191" />
        <ellipse
           style="opacity:1;fill:#ffff00;fill-opacity:1;stroke:none;stroke-width:17.29999924;stroke-linecap:round;stroke-miterlimit:4;stroke-dasharray:none;stroke-opacity:1"
           id="path3358"
           cx="60.962215"
           cy="857.80249"
           rx="37.475372"
           ry="24.379141" />
        <ellipse
           style="opacity:1;fill:#ffff00;fill-opacity:1;stroke:none;stroke-width:17.29999924;stroke-linecap:round;stroke-miterlimit:4;stroke-dasharray:none;stroke-opacity:1"
           id="path3362"
           cx="88.96801"
           cy="912.8067"
           rx="13.499194"
           ry="12.08883" />
      </g>
      <path
         inkscape:connector-curvature="0"
         id="text3336"
         d="m 593.87272,181.2738 c -16.14257,0 -27.8084,11.39468 -27.8084,26.99464 0,6.91824 2.5768,13.56539 7.05331,17.7706 3.9339,3.79825 7.05462,5.2902 18.72067,8.81715 7.86781,2.44173 12.20794,4.34136 15.46358,6.64744 4.47651,3.12 6.91904,8.2749 6.91904,14.37924 0,11.5304 -8.41128,19.94031 -19.80603,19.94031 -6.37563,0 -12.47946,-2.84905 -16.14206,-7.46122 -2.84869,-3.52694 -4.07006,-6.91759 -4.74831,-13.15757 l -10.71628,0 c 0.94956,18.04169 13.29438,29.84282 31.33607,29.84282 17.36343,0 30.2497,-12.6154 30.2497,-29.70753 0,-8.81736 -3.66217,-16.68474 -10.0378,-21.43255 -4.06955,-2.98434 -8.27483,-4.88339 -18.58437,-8.00338 -9.08867,-2.71304 -12.07308,-3.93448 -14.78612,-6.24056 -2.84868,-2.57739 -4.7473,-7.05418 -4.7473,-11.66634 0,-10.03823 7.32447,-17.49901 17.36271,-17.49901 10.17388,0 17.22763,7.05476 17.90589,17.9069 l 10.44569,0 C 621.54575,192.12652 610.28658,181.2738 593.87272,181.2738 Z m -543.560696,1.76384 0,100.24674 10.0378,0 0,-88.17352 59.686636,88.17352 10.03881,0 0,-100.24674 -10.03881,0 0,83.15462 -56.159976,-83.15462 -13.56446,0 z m 200.469266,0 0,26.04456 -16.00677,0 0,9.08875 16.00677,0 0,65.11343 10.0388,0 0,-65.11343 16.68524,0 0,-9.08875 -16.68524,0 0,-26.04456 -10.0388,0 z m 252.94205,0 0,100.24674 10.03881,0 0,-100.24674 -10.03881,0 z M 185.1812,207.31938 c -22.2469,0 -39.06786,16.82096 -39.06786,39.06786 0,22.11125 16.95683,38.65997 39.74634,38.65997 12.61561,0 20.75436,-4.20528 28.62216,-14.78612 l 0,13.02329 10.03881,0 0,-74.20218 -10.03881,0 0,13.15859 c -7.3252,-10.30954 -16.41372,-14.92141 -29.30064,-14.92141 z m 216.0742,0 c -10.7165,0.54261 -17.09177,4.2047 -21.02567,12.34381 l 0,-10.58099 -10.03881,0 0,74.20218 10.03881,0 0,-43.27299 c 0,-13.83648 7.05353,-21.43298 21.02567,-22.7895 l 0,-9.90251 z m 45.9566,0 c -22.24689,0 -39.06786,16.82096 -39.06786,39.06786 0,22.11125 16.95683,38.65997 39.74634,38.65997 12.61561,0 20.75436,-4.20528 28.62216,-14.78612 l 0,13.02329 10.0378,0 0,-74.20218 -10.0378,0 0,13.15859 C 469.18745,211.93125 460.09892,207.31938 447.212,207.31938 Z m 224.39561,0 c -21.56863,0 -38.52468,16.95604 -38.52468,38.52468 0,21.97559 17.22757,39.20315 39.20316,39.20315 9.49562,0 18.44821,-3.52688 25.23079,-9.90251 5.29043,-5.01912 8.81781,-10.17403 10.85258,-16.27836 l -10.44569,0 c -4.2052,10.17389 -14.65018,16.95684 -25.90928,16.95684 -15.193,0 -28.07984,-11.66577 -28.89375,-26.31617 l 67.14785,0 c 0,-10.17388 -1.3563,-16.41451 -5.0189,-22.9258 -6.64694,-11.8017 -19.53429,-19.26183 -33.64208,-19.26183 z m 83.61399,0 c -10.71649,0.54261 -17.09173,4.2047 -21.02565,12.34381 l 0,-10.58099 -10.03781,0 0,74.20218 10.03781,0 0,-43.27299 c 0,-13.83648 7.05351,-21.43298 21.02565,-22.7895 l 0,-9.90251 z m 120.65855,0 c -21.56864,0 -38.52468,16.95604 -38.52468,38.52468 0,21.97559 17.22759,39.20315 39.20316,39.20315 9.4956,0 18.44822,-3.52688 25.2308,-9.90251 5.2904,-5.01912 8.8178,-10.17403 10.85256,-16.27836 l -10.44568,0 c -4.2052,10.17389 -14.65015,16.95684 -25.90928,16.95684 -15.19298,0 -28.07983,-11.66577 -28.89374,-26.31617 l 67.14786,0 c 0,-10.17388 -1.35633,-16.41451 -5.01891,-22.9258 -6.64694,-11.8017 -19.5343,-19.26183 -33.64209,-19.26183 z m 83.61401,0 c -10.7165,0.54261 -17.09179,4.2047 -21.02565,12.34381 l 0,-10.58099 -10.03782,0 0,74.20218 10.03782,0 0,-43.27299 c 0,-13.83648 7.0535,-21.43298 21.02565,-22.7895 l 0,-9.90251 z m -671.70063,1.76282 0,40.01793 c 0,10.9878 1.89876,18.71937 5.83266,24.14545 5.56173,7.73215 14.51525,11.80163 25.6387,11.80163 11.5304,0 18.85574,-4.06955 23.87485,-13.29388 l 0,11.53105 10.0378,0 0,-74.20218 -10.0378,0 0,38.11881 c 0,9.08867 -1.35673,14.78597 -4.47672,19.39813 -4.20521,5.83303 -10.85221,9.22404 -18.58436,9.22404 -8.27477,0 -15.32837,-3.39166 -18.71967,-9.36034 -2.30608,-3.79825 -3.52766,-9.76621 -3.52766,-17.36271 l 0,-40.01793 -10.0378,0 z m 469.70481,0 31.19978,74.20218 10.58096,0 31.19978,-74.20218 -10.1731,0 -26.58873,62.40055 -26.04456,-62.40055 -10.17413,0 z m -572.04555,7.46122 c 16.27822,0 29.02905,12.75112 29.02905,29.30064 0,16.82082 -12.47996,29.97912 -28.48688,29.97912 -16.82082,0 -29.70752,-13.15794 -29.70752,-30.11441 0,-16.14257 13.02279,-29.16535 29.16535,-29.16535 z m 262.0308,0 c 16.27822,0 29.02905,12.75112 29.02905,29.30064 0,16.82082 -12.47996,29.97912 -28.48687,29.97912 -16.82083,0 -29.70752,-13.15794 -29.70752,-30.11441 0,-16.14257 13.02278,-29.16535 29.16534,-29.16535 z m 223.98873,0 c 14.37909,0 25.36616,9.08881 28.75746,23.87485 l -56.83745,0 c 2.71303,-14.24344 13.9722,-23.87485 28.07999,-23.87485 z m 204.27255,0 c 14.37908,0 25.36614,9.08881 28.75743,23.87485 l -56.83741,0 c 2.71302,-14.24344 13.97219,-23.87485 28.07998,-23.87485 z"
         style="font-style:normal;font-weight:normal;font-size:262.4163208px;line-height:125%;font-family:sans-serif;letter-spacing:0px;word-spacing:0px;fill:#000000;fill-opacity:1;stroke:none;stroke-width:1px;stroke-linecap:butt;stroke-linejoin:miter;stroke-opacity:1" />
    </g>
  </g>
</svg>
