<?xml version="1.0" encoding="UTF-8" standalone="no"?>
<!-- Created with Inkscape (http://www.inkscape.org/) -->

<svg
   xmlns:dc="http://purl.org/dc/elements/1.1/"
   xmlns:cc="http://creativecommons.org/ns#"
   xmlns:rdf="http://www.w3.org/1999/02/22-rdf-syntax-ns#"
   xmlns:svg="http://www.w3.org/2000/svg"
   xmlns="http://www.w3.org/2000/svg"
   xmlns:sodipodi="http://sodipodi.sourceforge.net/DTD/sodipodi-0.dtd"
   xmlns:inkscape="http://www.inkscape.org/namespaces/inkscape"
   width="70mm"
   height="70mm"
   viewBox="0 0 248.0315 248.03149"
   id="svg2"
   version="1.1"
   inkscape:version="0.91 r13725"
   sodipodi:docname="araguaney.svg">
  <defs
     id="defs4" />
  <sodipodi:namedview
     id="base"
     pagecolor="#ffffff"
     bordercolor="#666666"
     borderopacity="1.0"
     inkscape:pageopacity="0.0"
     inkscape:pageshadow="2"
     inkscape:zoom="1.979899"
     inkscape:cx="206.83778"
     inkscape:cy="110.78728"
     inkscape:document-units="px"
     inkscape:current-layer="layer1"
     showgrid="false"
     inkscape:window-width="1535"
     inkscape:window-height="876"
     inkscape:window-x="1665"
     inkscape:window-y="24"
     inkscape:window-maximized="1" />
  <metadata
     id="metadata7">
    <rdf:RDF>
      <cc:Work
         rdf:about="">
        <dc:format>image/svg+xml</dc:format>
        <dc:type
           rdf:resource="http://purl.org/dc/dcmitype/StillImage" />
        <dc:title></dc:title>
      </cc:Work>
    </rdf:RDF>
  </metadata>
  <g
     inkscape:label="Capa 1"
     inkscape:groupmode="layer"
     id="layer1"
     transform="translate(0,-804.33071)">
    <ellipse
       style="opacity:1;fill:#000000;fill-opacity:1;stroke:none;stroke-width:17.29999924;stroke-linecap:round;stroke-miterlimit:4;stroke-dasharray:none;stroke-opacity:1"
       id="path4212"
       cx="23.042122"
       cy="1031.0957"
       rx="15.99024"
       ry="15.49201" />
    <path
       style="fill:#552200;fill-rule:evenodd;stroke:#000000;stroke-width:0.06909079px;stroke-linecap:butt;stroke-linejoin:miter;stroke-opacity:1"
       d="m 20.639279,1035.5137 c -1.74481,-6.386 4.5016,-12.3184 4.5016,-12.3184 l 1.53542,1.1516 c 0,0 -4.50159,3.7688 -3.97815,11.3412 0.52344,7.5725 -2.05887,-0.1744 -2.05887,-0.1744 z"
       id="path4193"
       inkscape:connector-curvature="0" />
    <ellipse
       style="opacity:1;fill:#803300;fill-opacity:1;stroke:none;stroke-width:17.29999924;stroke-linecap:round;stroke-miterlimit:4;stroke-dasharray:none;stroke-opacity:1"
       id="path3383"
       cx="21.848854"
       cy="1036.8877"
       rx="5.5898514"
       ry="5.4328332" />
    <path
       sodipodi:type="spiral"
       style="fill:none;fill-rule:evenodd;stroke:#000000;stroke-width:0.06217607px;stroke-linecap:butt;stroke-linejoin:miter;stroke-opacity:1"
       id="path4191"
       sodipodi:cx="21.817436"
       sodipodi:cy="1036.762"
       sodipodi:expansion="1"
       sodipodi:revolution="3.3099999"
       sodipodi:radius="5.6806779"
       sodipodi:argument="-20.465103"
       sodipodi:t0="0"
       d="m 21.817436,1036.762 c -0.01155,-0.2579 0.341929,-0.1428 0.428625,-0.019 0.234941,0.3349 -0.06288,0.7558 -0.390236,0.8764 -0.585561,0.2157 -1.178697,-0.2386 -1.324263,-0.7997 -0.213623,-0.8233 0.414895,-1.6089 1.209098,-1.772 1.058547,-0.2175 2.042064,0.5911 2.2199,1.6185 0.223788,1.2929 -0.767261,2.4766 -2.027959,2.6677 -1.526873,0.2315 -2.911927,-0.9433 -3.115538,-2.4374 -0.239948,-1.7607 1.119388,-3.3477 2.84682,-3.5633 1.994389,-0.2489 3.783946,1.2954 4.011175,3.2562 0.258193,2.2281 -1.471407,4.2204 -3.66568,4.459 -2.461644,0.2677 -4.656948,-1.6474 -4.906813,-4.0751 -0.277398,-2.6952 1.823375,-5.0937 4.484541,-5.3546 2.928787,-0.2872 5.530479,1.9993 5.802451,4.8939 0.06629,0.7056 -0.0034,1.4223 -0.202096,2.1024" />
    <ellipse
       style="opacity:1;fill:#005500;fill-opacity:1;stroke:none;stroke-width:17.29999924;stroke-linecap:round;stroke-miterlimit:4;stroke-dasharray:none;stroke-opacity:1"
       id="path4195"
       cx="-569.02576"
       cy="848.9408"
       rx="1.9282186"
       ry="4.1204195"
       transform="matrix(0.81731528,-0.57619071,0.57619071,0.81731528,0,0)" />
    <ellipse
       style="opacity:1;fill:#008000;fill-opacity:1;stroke:none;stroke-width:17.29999924;stroke-linecap:round;stroke-miterlimit:4;stroke-dasharray:none;stroke-opacity:1"
       id="path4195-3"
       cx="-1020.2206"
       cy="-90.106155"
       rx="1.9282186"
       ry="4.1204195"
       transform="matrix(-0.11560418,-0.99329536,0.99329536,-0.11560418,0,0)" />
    <path
       style="fill:#552200;fill-rule:evenodd;stroke:#000000;stroke-width:0.14103636px;stroke-linecap:butt;stroke-linejoin:miter;stroke-opacity:1"
       d="m 62.97702,916.43333 38.28129,28.20727 9.26811,34.25169 -9.67107,21.35691 -6.447372,29.8191 24.580622,1.2088 1.20889,-26.5953 9.67106,-22.96879 -9.26811,-38.68426 65.27968,-46.34051 25.38654,7.65626 19.34215,0 -18.93917,-6.04441 -31.43097,-10.87995 -16.11845,-23.37174 6.44739,21.35693 -40.69906,8.05923 -23.37174,-10.47699 19.74508,20.55101 43.92277,-9.2681 -59.63824,35.46056 -39.087219,-23.7747 18.536205,-2.82072 -26.192463,-6.85034 -5.641455,-13.29771 -6.044416,17.32732 -25.386544,8.05923 z"
       id="path3342"
       inkscape:connector-curvature="0" />
    <ellipse
       style="opacity:1;fill:#ffff00;fill-opacity:1;stroke:none;stroke-width:17.29999924;stroke-linecap:round;stroke-miterlimit:4;stroke-dasharray:none;stroke-opacity:1"
       id="path3344"
       cx="59.753338"
       cy="886.21118"
       rx="55.60862"
       ry="29.819115" />
    <ellipse
       style="opacity:1;fill:#ffff00;fill-opacity:1;stroke:none;stroke-width:17.29999924;stroke-linecap:round;stroke-miterlimit:4;stroke-dasharray:none;stroke-opacity:1"
       id="path3346"
       cx="103.07165"
       cy="863.64539"
       rx="38.079815"
       ry="29.416155" />
    <ellipse
       style="opacity:1;fill:#ffff00;fill-opacity:1;stroke:none;stroke-width:17.29999924;stroke-linecap:round;stroke-miterlimit:4;stroke-dasharray:none;stroke-opacity:1"
       id="path3350"
       cx="178.42532"
       cy="871.70465"
       rx="52.586414"
       ry="31.43096" />
    <ellipse
       style="opacity:1;fill:#ffff00;fill-opacity:1;stroke:none;stroke-width:17.29999924;stroke-linecap:round;stroke-miterlimit:4;stroke-dasharray:none;stroke-opacity:1"
       id="path3354"
       cx="209.45334"
       cy="897.29266"
       rx="35.259087"
       ry="27.602827" />
    <ellipse
       style="opacity:1;fill:#ffff00;fill-opacity:1;stroke:none;stroke-width:17.29999924;stroke-linecap:round;stroke-miterlimit:4;stroke-dasharray:none;stroke-opacity:1"
       id="path3356"
       cx="144.37514"
       cy="838.66187"
       rx="38.281292"
       ry="29.013191" />
    <ellipse
       style="opacity:1;fill:#ffff00;fill-opacity:1;stroke:none;stroke-width:17.29999924;stroke-linecap:round;stroke-miterlimit:4;stroke-dasharray:none;stroke-opacity:1"
       id="path3358"
       cx="60.962215"
       cy="857.80249"
       rx="37.475372"
       ry="24.379141" />
    <ellipse
       style="opacity:1;fill:#ffff00;fill-opacity:1;stroke:none;stroke-width:17.29999924;stroke-linecap:round;stroke-miterlimit:4;stroke-dasharray:none;stroke-opacity:1"
       id="path3362"
       cx="88.96801"
       cy="912.8067"
       rx="13.499194"
       ry="12.08883" />
  </g>
</svg>
